<?xml version="1.0" encoding="UTF-8"?>
<svg width="52px" height="52px" viewBox="0 0 52 52" version="1.1" xmlns="http://www.w3.org/2000/svg" xmlns:xlink="http://www.w3.org/1999/xlink">
    <title>效率火箭</title>
    <g id="系统组织管理" stroke="none" stroke-width="1" fill="none" fill-rule="evenodd" opacity="0.805726551">
        <g id="资产盘点-气泡弹框整合备份-9" transform="translate(-675.000000, -354.000000)" fill-rule="nonzero" stroke="#597EF7" stroke-width="2.4">
            <g id="效率火箭" transform="translate(677.000000, 356.000000)">
                <path d="M47.2937893,1.95818829 C47.2168638,1.31805834 46.7095656,0.813426873 46.0660529,0.736905738 C35.2997487,-1.79960418 24.1556795,2.33396754 17.6380058,11.2587246 C17.4081346,11.579236 17.0748321,11.8117518 16.6935931,11.9175583 C12.9159425,12.8570064 9.42161573,14.8286274 6.68281905,17.6469718 C5.36064135,18.9621992 4.22734617,20.3713714 3.28293352,21.9684332 C2.5274034,23.2848806 3.84958111,24.8819424 5.36064135,24.3182735 C7.72167296,23.4727702 10.2715871,23.001826 12.72706,23.0018261 C12.72706,23.1897157 12.6326187,23.4727702 12.6326187,23.6606598 C14.4462908,25.763888 16.3363689,27.800709 18.2990946,29.7670725 C20.2823612,31.7399136 22.2656277,33.6188098 24.344562,35.4037612 C24.5334445,35.4037612 24.8167683,35.3098164 25.0056509,35.3098164 C25.0056509,37.8463263 24.6278858,40.2876713 23.6834732,42.6375117 C23.4011261,43.2984098 23.5938953,44.0654333 24.1556795,44.516408 C24.7223271,44.986132 25.4778572,45.0800768 26.0445048,44.7042976 C27.6500063,43.7648495 29.0666253,42.6375117 30.388803,41.3222844 C33.1275996,38.5978848 35.1108662,35.1219268 36.1497201,31.2689695 C36.2441614,30.8944104 36.4318174,30.5186311 36.810809,30.3295214 C45.6882878,23.8485495 49.7504888,12.6678968 47.2937893,1.95818829 L47.2937893,1.95818829 Z" id="路径"></path>
                <path d="M36.0552788,19.8077025 C34.475642,21.3958746 32.0883926,21.8782356 30.0110379,21.028985 C27.9333301,20.1834817 26.6111524,18.1166959 26.6111524,15.8620204 C26.6111524,13.6073449 27.9333301,11.5405591 30.0110379,10.6950558 C32.0883926,9.84580519 34.475642,10.3281662 36.0552788,11.9163383 C38.2262014,14.077069 38.2262014,17.6469718 36.0552788,19.8077025 L36.0552788,19.8077025 Z" id="路径"></path>
                <path d="M0.4346406,47.6774728 C2.48519119,49.7009799 11.5262552,41.6069515 13.2051888,39.9513548 C14.8817015,38.295758 14.602081,35.352475 12.5515304,33.3289678 C10.5009799,31.3054607 7.51836082,31.1215055 5.84063761,32.7771023 C4.1629144,34.432699 -1.61590999,45.6539657 0.4346406,47.6774728 Z" id="路径"></path>
            </g>
        </g>
    </g>
</svg>